#define noname_width 10
#define noname_height 7
static char noname_bits[] = {
 0x82,0x01,0x43,0x03,0x62,0x02,0x62,0x02,0x62,0x02,0x62,0x03,0xcf,0x03};
