#define noname_width 5
#define noname_height 7
static char noname_bits[] = {
 0x0e,0x1b,0x1f,0x0e,0x1f,0x11,0x1f};
