#define noname_width 20
#define noname_height 7
static char noname_bits[] = {
 0x02,0x80,0x0f,0x03,0xc0,0x07,0x02,0x40,0x06,0x02,0x00,0x03,0x02,0x00,0x01,
 0x02,0x00,0x01,0x4f,0x12,0x01};
