#define noname_width 5
#define noname_height 7
static char noname_bits[] = {
 0x0c,0x1a,0x13,0x1b,0x1e,0x1b,0x0f};
