#define noname_width 4
#define noname_height 7
static char noname_bits[] = {
 0x02,0x03,0x02,0x02,0x02,0x02,0x0f};
