#define noname_width 5
#define noname_height 7
static char noname_bits[] = {
 0x0e,0x1b,0x1b,0x1e,0x18,0x13,0x1f};
