#define noname_width 5
#define noname_height 7
static char noname_bits[] = {
 0x08,0x0c,0x0e,0x0a,0x1f,0x08,0x1c};
